<?xml version="1.0" encoding="UTF-8" standalone="no"?>
<svg
   xmlns:dc="http://purl.org/dc/elements/1.1/"
   xmlns:cc="http://creativecommons.org/ns#"
   xmlns:rdf="http://www.w3.org/1999/02/22-rdf-syntax-ns#"
   xmlns:svg="http://www.w3.org/2000/svg"
   xmlns="http://www.w3.org/2000/svg"
   version="1.1"
   id="svg4138"
   viewBox="0 0 744.09448819 1052.3622047"
   height="297mm"
   width="210mm">
  <defs
     id="defs4140" />
  <metadata
     id="metadata4143">
    <rdf:RDF>
      <cc:Work
         rdf:about="">
        <dc:format>image/svg+xml</dc:format>
        <dc:type
           rdf:resource="http://purl.org/dc/dcmitype/StillImage" />
        <dc:title></dc:title>
      </cc:Work>
    </rdf:RDF>
  </metadata>
  <g
     id="layer1">
    <g
       transform="matrix(3.3908466,0,0,3.4176661,-1571.4054,102.15122)"
       id="g6708">
      <rect
         y="-30.444927"
         x="463.03534"
         height="311.81104"
         width="223.22835"
         id="rect6367-6"
         style="display:inline;fill:#ffffff;fill-opacity:1;stroke:#000000;stroke-width:1.0005666;stroke-miterlimit:4;stroke-dasharray:none;stroke-opacity:1"
         rx="10.677597"
         ry="10.66401" />
      <path
         style="display:inline;opacity:1;fill:#d40000"
         d="m 480.2527,39.5283 c -2.161,-3.5686 -4.4344,-7.0371 -7.2754,-10 2.841,-2.9628 5.1144,-6.4313 7.2754,-10 2.1609,3.5687 4.4343,7.0372 7.2753,10 -2.841,2.9629 -5.1144,6.4314 -7.2753,10 z"
         id="path6399-9" />
      <path
         id="path6403-1"
         d="m 669.04725,231.3929 c -2.161,-3.5686 -4.4344,-7.0371 -7.2754,-10 2.841,-2.9628 5.1144,-6.4313 7.2754,-10 2.1609,3.5687 4.4343,7.0372 7.2753,10 -2.841,2.9629 -5.1144,6.4314 -7.2753,10 z"
         style="display:inline;opacity:1;fill:#d40000" />
      <path
         id="path6413-1"
         d="m 574.6495,149.4606 c -5.1862,-8.5648 -10.6424,-16.8891 -17.4609,-24 6.8185,-7.1108 12.2747,-15.4351 17.4609,-24 5.1863,8.5649 10.6425,16.8892 17.461,24 -6.8185,7.1109 -12.2747,15.4352 -17.461,24 z"
         style="display:inline;opacity:1;fill:#d40000" />
      <path
         d="m 470.15911,16.3928 0,-2.8217 2.6923,0 5.7354,-30.1783 3.2644,0 6.3179,30.1783 2.1741,0 0,2.8217 -7.4082,0 0,-2.8217 1.9993,0 -0.7984,-4.6247 -7.4737,0 -0.5773,4.6247 1.9992,0 0,2.8217 -7.925,0 z m 13.3391,-10.7407 -3.249,-16.1524 -3.0432,16.1524 6.2922,0 z m 0,0"
         id="path41-87-9-4-8"
         style="opacity:1;fill:#d40000;fill-opacity:1" />
      <path
         d="m 658.95364,234.5284 0,2.8217 2.6923,0 5.7354,30.1783 3.2644,0 6.3179,-30.1783 2.1741,0 0,-2.8217 -7.4082,0 0,2.8217 1.9993,0 -0.7984,4.6246 -7.4737,0 -0.5773,-4.6246 1.9992,0 0,-2.8217 -7.925,0 z m 13.3391,10.7407 -3.249,16.1524 -3.0432,-16.1524 6.2922,0 z m 0,0"
         id="path41-8-5-6-1"
         style="opacity:1;fill:#d40000;fill-opacity:1" />
    </g>
  </g>
</svg>
