<?xml version="1.0" encoding="UTF-8" standalone="no"?>
<!-- Created with Inkscape (http://www.inkscape.org/) -->

<svg
   xmlns:dc="http://purl.org/dc/elements/1.1/"
   xmlns:cc="http://creativecommons.org/ns#"
   xmlns:rdf="http://www.w3.org/1999/02/22-rdf-syntax-ns#"
   xmlns:svg="http://www.w3.org/2000/svg"
   xmlns="http://www.w3.org/2000/svg"
   xmlns:sodipodi="http://sodipodi.sourceforge.net/DTD/sodipodi-0.dtd"
   xmlns:inkscape="http://www.inkscape.org/namespaces/inkscape"
   width="561.75763"
   height="127.99579"
   id="svg3383"
   version="1.1"
   inkscape:version="0.48.4 r9939"
   sodipodi:docname="New document 8">
  <defs
     id="defs3385" />
  <sodipodi:namedview
     id="base"
     pagecolor="#ffffff"
     bordercolor="#666666"
     borderopacity="1.0"
     inkscape:pageopacity="0.0"
     inkscape:pageshadow="2"
     inkscape:zoom="0.35"
     inkscape:cx="298.73594"
     inkscape:cy="12.569317"
     inkscape:document-units="px"
     inkscape:current-layer="layer1"
     showgrid="false"
     fit-margin-top="0"
     fit-margin-left="0"
     fit-margin-right="0"
     fit-margin-bottom="0"
     inkscape:window-width="1280"
     inkscape:window-height="750"
     inkscape:window-x="0"
     inkscape:window-y="0"
     inkscape:window-maximized="1" />
  <metadata
     id="metadata3388">
    <rdf:RDF>
      <cc:Work
         rdf:about="">
        <dc:format>image/svg+xml</dc:format>
        <dc:type
           rdf:resource="http://purl.org/dc/dcmitype/StillImage" />
        <dc:title></dc:title>
      </cc:Work>
    </rdf:RDF>
  </metadata>
  <g
     inkscape:label="Layer 1"
     inkscape:groupmode="layer"
     id="layer1"
     transform="translate(-76.264055,-439.79285)">
    <path
       style="fill:#000000"
       d="m 77.553284,566.29702 c -1.41798,-1.61056 -1.74512,-52.44527 -0.58478,-90.87088 l 0.66031,-21.86671 2.67163,-1.13329 c 4.74316,-2.01202 9.98899,-6.08875 9.99601,-7.76828 0.009,-2.12928 4.23392,-4.86501 7.51346,-4.86501 2.915536,0 5.926476,2.46114 6.902406,5.64203 0.70231,2.28904 3.2203,3.32231 8.14983,3.34431 6.91553,0.0309 6.4803,-3.57114 7.1531,59.20052 0.54583,50.92518 0.44689,56.79714 -0.98103,58.22506 -2.02924,2.02924 -10.32508,2.1368 -12.30237,0.15951 -1.19056,-1.19056 -1.42857,-8.10476 -1.42857,-41.5 l 0,-40.07143 -6.999996,0 -7,0 0,40.07143 c 0,33.39524 -0.23801,40.30944 -1.42857,41.5 -1.87974,1.87973 -10.64938,1.83186 -12.32143,-0.0673 z m 119.357246,0.0808 c -7.78994,-2.41198 -11.89989,-12.47516 -9.77565,-23.93555 2.02866,-10.94471 8.24922,-15.82591 20.16841,-15.82591 11.79561,0 17.98071,4.7675 20.1411,15.52485 1.41606,7.05111 -0.0696,15.55801 -3.50325,20.05978 -3.92444,5.1452 -17.25189,7.20459 -27.03061,4.17683 z m 15.82133,-10.15642 c 1.12302,-1.12299 1.57143,-3.52812 1.57143,-8.42855 0,-8.12692 -1.31116,-10 -7,-10 -5.68884,0 -7,1.87308 -7,10 0,4.90043 0.44841,7.30556 1.57143,8.42857 2.04202,2.04202 8.81512,2.04202 10.85714,0 z m 25.09849,10.13392 c -4.49126,-1.38798 -7.72034,-5.62011 -7.29609,-9.56249 0.24752,-2.30013 0.72215,-2.52378 5.93658,-2.79744 4.97101,-0.26089 5.74733,-0.0461 6.31665,1.74767 1.11101,3.50048 10.6713,4.27815 11.30746,0.91979 0.23995,-1.2667 -1.31822,-2.02205 -6.99145,-3.3892 -12.75439,-3.0736 -16.16877,-6.05505 -16.04845,-14.01358 0.0846,-5.59623 3.07592,-9.92524 7.97567,-11.5423 5.14082,-1.69662 16.03515,-1.50349 20.45615,0.36264 4.0093,1.69235 7.13961,6.43008 6.6271,10.03011 -0.26864,1.88702 -1.03682,2.22376 -5.6771,2.48861 -4.48772,0.25614 -5.60225,-0.0304 -6.8067,-1.75 -1.58145,-2.25784 -7.68386,-2.90574 -8.89598,-0.9445 -0.92349,1.49425 1.08783,2.61241 6.97812,3.87939 7.06904,1.52052 13.23927,4.48312 14.58879,7.00472 0.64287,1.20121 1.16886,4.236 1.16886,6.74396 0,5.52152 -2.39094,9.11808 -7.22185,10.86341 -4.38317,1.58357 -17.2373,1.56019 -22.41776,-0.0408 z m 39.36466,-0.0602 c -3.05108,-1.65831 -3.89172,-5.8133 -3.89172,-19.23546 0,-7.48843 -0.21876,-8.51126 -1.91531,-8.95491 -3.63967,-0.9518 -3.76198,-9.64001 -0.14901,-10.58483 1.16554,-0.30479 1.98673,-1.8404 2.41439,-4.51483 0.55629,-3.47885 1.07315,-4.14628 3.64901,-4.71204 1.65051,-0.36251 4.35133,-0.36251 6.00184,0 2.54534,0.55905 3.09472,1.24572 3.61879,4.52304 0.49595,3.10153 1.18637,4.06211 3.49908,4.86833 2.54376,0.88676 2.88121,1.48506 2.88121,5.10843 0,3.67146 -0.31989,4.21555 -3.03489,5.16201 l -3.03488,1.05796 0.28488,9.59708 c 0.2763,9.30755 0.36015,9.61479 2.77964,10.18386 2.69984,0.63502 3.53248,2.76231 2.57475,6.57818 -0.56297,2.24305 -1.06537,2.41797 -6.83855,2.38087 -3.42702,-0.022 -7.40467,-0.67797 -8.83923,-1.45768 z m 27.71552,0.0827 c -7.78994,-2.41198 -11.89989,-12.47516 -9.77565,-23.93555 2.02866,-10.94471 8.24922,-15.82591 20.16841,-15.82591 11.79561,0 17.98071,4.7675 20.1411,15.52485 1.41606,7.05111 -0.0696,15.55801 -3.50325,20.05978 -3.92444,5.1452 -17.25189,7.20459 -27.03061,4.17683 z m 15.82133,-10.15642 c 1.12302,-1.12299 1.57143,-3.52812 1.57143,-8.42855 0,-8.12692 -1.31116,-10 -7,-10 -5.68884,0 -7,1.87308 -7,10 0,4.90043 0.44841,7.30556 1.57143,8.42857 2.04202,2.04202 8.81512,2.04202 10.85714,0 z m 222.19182,10.05256 c -9.60755,-2.63842 -15.92753,-12.43366 -15.85362,-24.57131 0.0974,-16.00513 11.05675,-27.15982 26.68407,-27.15982 9.61267,0 20.75932,5.65398 19.19312,9.73544 -1.04388,2.72032 -3.34811,2.73872 -7.39734,0.0591 -7.06914,-4.67814 -17.28787,-4.39536 -24.51926,0.67851 -7.1728,5.03276 -9.40621,18.0943 -4.66862,27.30327 5.41817,10.53191 19.98172,13.55163 30.22675,6.26745 2.98181,-2.12005 5.37896,-1.83175 6.37614,0.76686 2.3218,6.05051 -17.00055,10.50176 -30.04124,6.92053 z m 48,0 c -9.60755,-2.63842 -15.92753,-12.43366 -15.85362,-24.57131 0.0975,-16.00513 11.05675,-27.15982 26.68407,-27.15982 9.61267,0 20.75932,5.65398 19.19312,9.73544 -1.04388,2.72032 -3.34811,2.73872 -7.39734,0.0591 -7.06914,-4.67814 -17.28787,-4.39536 -24.51926,0.67851 -7.1728,5.03276 -9.40621,18.0943 -4.66862,27.30327 5.41817,10.53191 19.98172,13.55163 30.22675,6.26745 2.98181,-2.12005 5.37896,-1.83175 6.37614,0.76686 2.3218,6.05051 -17.00055,10.50176 -30.04124,6.92053 z m -452.8704,-0.0592 c -0.4125,-0.41537 -0.75,-12.13938 -0.75,-26.05336 0,-24.97256 0.0281,-25.31317 2.18045,-26.46509 3.13906,-1.67998 29.17441,-0.66309 33.86515,1.3227 5.23754,2.21728 7.39736,6.09329 7.42842,13.33105 0.0167,3.89811 -0.53951,6.90886 -1.56049,8.44655 -1.48499,2.23651 -1.43701,2.60963 0.75,5.83237 3.22587,4.75358 3.51671,13.31349 0.61995,18.2461 -2.92175,4.97516 -4.53571,5.36482 -23.78348,5.74208 -9.9,0.19404 -18.3375,0.013 -18.75,-0.4024 z m 29.71377,-11.39181 c 0.84493,-0.70123 1.52934,-2.23236 1.52092,-3.40251 -0.0308,-4.28196 -1.49972,-5.09071 -9.94245,-5.47411 l -8.04224,-0.36522 0,5.73739 0,5.73739 7.46377,-0.47899 c 4.10508,-0.26345 8.15508,-1.05273 9,-1.75395 z m -0.66148,-25.14461 c 0.28008,-3.349 0.0689,-3.66123 -2.875,-4.25 -1.74751,-0.3495 -5.37104,-0.63546 -8.05229,-0.63546 l -4.875,0 0,4.54206 0,4.54207 7.75,-0.29207 7.75,-0.29206 0.30229,-3.61454 z m 174.39772,35.91451 c -1.25941,-1.25941 -1.75163,-31.14107 -0.58465,-35.49288 0.74875,-2.79219 5.21534,-3.84813 9.83222,-2.32442 2.55471,0.84313 3.99911,0.84861 5.54543,0.021 2.93581,-1.5712 11.18167,-1.58826 14.94144,-0.0309 5.18234,2.14659 6.3129,5.73397 6.85688,21.75752 0.35902,10.57521 0.15943,14.62405 -0.77649,15.75176 -1.58897,1.91459 -10.31668,2.06401 -11.86113,0.20307 -0.62808,-0.7568 -1.21055,-6.80449 -1.37244,-14.25 l -0.28126,-12.93519 -3.31532,-0.31823 c -5.66698,-0.54396 -6.18468,0.64809 -6.18468,14.24067 0,8.1381 -0.39806,12.57562 -1.2,13.37756 -0.66,0.66 -3.27,1.2 -5.8,1.2 -2.53,0 -5.14,-0.54 -5.8,-1.2 z m 43.86582,-0.55 c 0.0362,-0.9625 4.88013,-12.325 10.76429,-25.25 10.37798,-22.79604 10.79045,-23.50902 13.76935,-23.80106 1.68899,-0.16559 3.53418,0.28441 4.10043,1 1.96356,2.48141 22.19232,48.16646 21.68847,48.98169 -0.6263,1.01337 -4.49697,1.04827 -5.99635,0.0541 -0.6094,-0.40408 -2.04659,-2.87219 -3.19377,-5.48469 l -2.08578,-4.75 -14.00944,0 -14.00943,0 -2.08568,4.71501 c -2.30364,5.20777 -3.42378,6.24699 -6.75791,6.26968 -1.50672,0.0102 -2.22826,-0.5628 -2.18418,-1.73469 z m 33.40563,-21.91046 c -6.40452,-14.48176 -7.78974,-17.33954 -8.4048,-17.33954 -0.36312,0 -2.95931,5.175 -5.7693,11.5 l -5.10908,11.5 10.89326,0 10.89325,0 -2.50333,-5.66046 z m 21.59904,22.2454 c -1.37144,-1.65249 -1.12646,-47.8663 0.2611,-49.25354 1.31343,-1.31312 18.65565,-1.61998 25.02376,-0.44277 7.17131,1.32569 11.32834,4.20383 13.73922,9.51244 2.46665,5.43142 2.37699,9.24002 -0.34457,14.63704 -1.6965,3.36427 -3.41971,5.04207 -7.00496,6.82038 l -4.75496,2.35848 4.8929,5.64152 c 2.69109,3.10283 5.84333,6.49875 7.00496,7.5465 3.55917,3.21022 2.75638,4.94477 -1.99369,4.30765 -3.44882,-0.46258 -4.92746,-1.48366 -9.24145,-6.38167 -9.95584,-11.30364 -9.99342,-11.33097 -15.57588,-11.33097 l -5.07692,0 0,7.8 c 0,4.73333 -0.47179,8.27179 -1.2,9 -1.61582,1.61582 -4.29342,1.51532 -5.72951,-0.21506 z m 30.47496,-26.03948 c 3.41305,-3.41305 3.43381,-10.29461 0.043,-14.2397 -2.31676,-2.69544 -2.82792,-2.81917 -13,-3.14678 l -10.58845,-0.34103 0,10.09103 0,10.09102 10.54545,0 c 9.86308,0 10.70429,-0.15883 13,-2.45454 z m 29.65455,26.25454 c -0.85784,-0.85784 -1.2,-7.24314 -1.2,-22.39411 l 0,-21.19412 -7.95539,-0.36127 c -8.63737,-0.39225 -11.2689,-1.68605 -9.41315,-4.62802 0.96992,-1.53764 3.26298,-1.72248 21.36854,-1.72248 18.10556,0 20.39862,0.18484 21.36854,1.72248 1.85575,2.94197 -0.77578,4.23577 -9.41315,4.62802 l -7.95539,0.36127 0,21.19412 c 0,21.7248 -0.31691,23.59411 -4,23.59411 -0.88,0 -2.14,-0.54 -2.8,-1.2 z m -344.70001,-55.8 c -18.66666,-0.42424 -22,-0.72727 -22,-2 0,-1.28741 4.46432,-1.59491 31.5,-2.16971 84.97791,-1.80669 159.72299,-7.19404 220.50001,-15.89284 7.7,-1.10208 28.175,-4.44214 45.5,-7.42237 55.06032,-9.47143 82.5966,-13.51508 92.03438,-13.51508 5.25967,0 5.96562,0.23209 5.96562,1.96126 0,1.5012 -1.2315,2.32719 -5.25,3.52125 -18.04084,5.36066 -93.90181,19.47375 -131.47578,24.4596 -61.66066,8.18201 -160.4044,12.79357 -236.77423,11.05789 z m 384.36349,-38.91699 c -2.55009,-0.35737 -5.25009,-1.15668 -6,-1.77624 -0.74991,-0.61956 -2.93848,-1.53315 -4.86348,-2.03019 -4.46982,-1.15413 -4.97821,-4.60649 -0.75,-5.093 1.5125,-0.17404 2.75,-0.57901 2.75,-0.89994 0,-0.32093 -1.82128,-3.74248 -4.04729,-7.60345 -4.65291,-8.07036 -4.81817,-11.02361 -0.64368,-11.50231 2.09499,-0.24024 5.36863,1.3485 12.87837,6.25 8.04929,5.25366 10.85234,6.57212 13.97235,6.57212 2.43581,0 4.10638,-0.52995 4.44399,-1.40975 0.76805,-2.0015 4.18126,-2.59165 9.36176,-1.61868 3.514,0.65999 6.17748,0.34698 12.5,-1.46896 30.86351,-8.86455 30.47711,-8.78507 43.24873,-8.89627 10.4396,-0.0909 12.47123,0.15065 13.98305,1.66242 3.64702,3.64692 -2.59242,8.39774 -16.84409,12.82539 -6.98439,2.16989 -9.92728,3.56391 -10.35259,4.90395 -0.80605,2.53965 -9.46228,5.32225 -14.8083,4.76023 -2.30577,-0.24241 -9.1423,0.58198 -15.1923,1.83197 -10.92557,2.25734 -28.32585,4.53198 -32.71059,4.27609 -1.25917,-0.0735 -4.37584,-0.42601 -6.92593,-0.78338 z"
       id="path3370"
       inkscape:connector-curvature="0"
       clip-path="none" />
  </g>
</svg>
